# xmcd CD database file
#
# Track frame offsets:
#	150
#	15099
#	34932
#	58522
#	74915
#	93375
#	120201
#	145039
#	160998
#	185706
#	203786
#	218531
#
# Disc length: 3059 seconds
#
# Revision: 0
# Processed by: cddbd v1.5.2PL0 Copyright (c) Steve Scherf et al.
# Submitted via: CDex 1.70beta2
#
DISCID=a20bf10c
DTITLE=Bluetones - More Than A Feelin'
DYEAR=1900
DGENRE=Blues
TTITLE0=Operator
TTITLE1=Still In The Place
TTITLE2=When You Want Some Love
TTITLE3=Lovin' Drawback
TTITLE4=What's The Matter
TTITLE5=More Than A Feelin'
TTITLE6=Time Goes On
TTITLE7=I Don't Care
TTITLE8=I Had A Dream
TTITLE9=The Blues
TTITLE10=Cool Doll
TTITLE11=My Lord
EXTD=
EXTT0=
EXTT1=
EXTT2=
EXTT3=
EXTT4=
EXTT5=
EXTT6=
EXTT7=
EXTT8=
EXTT9=
EXTT10=
EXTT11=
PLAYORDER=
